<svg width="128" height="128" viewBox="0 0 128 128" fill="none" xmlns="http://www.w3.org/2000/svg">
<g id="bor" clip-path="url(#clip0)">
<g id="_thumb180">
<path id="Union" d="M64 0H128V128H64C28.6538 128 0 99.3462 0 64C0 28.6538 28.6538 0 64 0Z" fill="black" stroke="white" stroke-width="0.5"/>
</g>
<line id="Line" x1="-0.0029152" x2="127.983" y2="127.986" stroke="white" stroke-linecap="square"/>
<g id="_halfArcs" clip-path="url(#clip1)">
<path id="Ellipse" d="M0 128C4.63574e-06 92.6489 14.3309 60.6449 37.5 37.4807" stroke="white"/>
<path id="Ellipse_2" d="M32 128C32 101.492 42.7436 77.4939 60.1138 60.1217" stroke="white"/>
<path id="Ellipse_3" d="M64 128C64 110.328 71.1626 94.3287 82.7432 82.7471" stroke="white"/>
<path id="Ellipse_4" d="M95.6284 128C95.6284 119.164 99.2097 111.164 105 105.374" stroke="white"/>
</g>
</g>
<defs>
<clipPath id="clip0">
<rect width="128" height="128" fill="white"/>
</clipPath>
<clipPath id="clip1">
<rect width="128" height="128" fill="white" transform="translate(128 128) rotate(-180)"/>
</clipPath>
</defs>
</svg>
