<svg width="128" height="128" viewBox="0 0 128 128" fill="none" xmlns="http://www.w3.org/2000/svg">
<g id="rev" clip-path="url(#clip0)">
<g id="_thumb0">
<path id="Union" d="M64 128H0L5.59506e-06 0L64 5.59506e-06C99.3462 8.68512e-06 128 28.6538 128 64C128 99.3462 99.3462 128 64 128Z" fill="black" stroke="white" stroke-width="0.5"/>
</g>
<line id="Line" x1="15.9965" y1="111.997" x2="53.9965" y2="73.9965" stroke="white"/>
<g id="_Dot">
<circle id="Ellipse" cx="16" cy="112" r="11.5" fill="black" stroke="black"/>
<circle id="Ellipse_2" cx="16" cy="112" r="9" fill="white" stroke="white" stroke-width="2"/>
</g>
<g id="_Torus">
<path id="Subtract" fill-rule="evenodd" clip-rule="evenodd" d="M80 64C80 72.8366 72.8366 80 64 80C55.1634 80 48 72.8366 48 64C48 55.1634 55.1634 48 64 48C72.8366 48 80 55.1634 80 64ZM64 72C68.4183 72 72 68.4183 72 64C72 59.5817 68.4183 56 64 56C59.5817 56 56 59.5817 56 64C56 68.4183 59.5817 72 64 72Z" fill="white"/>
</g>
</g>
<defs>
<clipPath id="clip0">
<rect width="128" height="128" fill="white"/>
</clipPath>
</defs>
</svg>
