<svg width="128" height="128" viewBox="0 0 128 128" fill="none" xmlns="http://www.w3.org/2000/svg">
<g id="tan" clip-path="url(#clip0)">
<g id="_wedge270">
<path id="Ellipse" d="M0 0C0 70.6925 57.3075 128 128 128V0H0Z" fill="black" stroke="white" stroke-width="0.5"/>
</g>
<path id="Ellipse_2" d="M96 128C96 74.9807 53.0193 32 0 32" stroke="white"/>
<path id="Ellipse_3" d="M64 128C64 92.6538 35.3462 64 0 64" stroke="white"/>
<path id="Ellipse_4" d="M48 128C48 101.49 26.5097 80 0 80" stroke="white"/>
<path id="Ellipse_5" d="M32 128C32 110.327 17.6731 96 0 96" stroke="white"/>
<path id="Ellipse_6" d="M16 128C16 119.163 8.83656 112 0 112" stroke="white"/>
<path id="Ellipse_7" d="M128 128C128 57.3075 70.6925 0 0 0" stroke="white"/>
</g>
<defs>
<clipPath id="clip0">
<rect width="128" height="128" fill="white"/>
</clipPath>
</defs>
</svg>
