<svg width="128" height="128" viewBox="0 0 128 128" fill="none" xmlns="http://www.w3.org/2000/svg">
<g id="tec" clip-path="url(#clip0)">
<g id="_wedge90">
<path id="Ellipse" d="M128 128C128 57.3076 70.6925 6.18013e-06 1.11901e-05 0L0 128L128 128Z" fill="black" stroke="white" stroke-width="0.5"/>
</g>
<line id="Line" x1="80.0035" y1="79.9965" x2="112.003" y2="111.997" stroke="white"/>
<g id="_Torus">
<path id="Subtract" fill-rule="evenodd" clip-rule="evenodd" d="M80 64C80 72.8366 72.8366 80 64 80C55.1634 80 48 72.8366 48 64C48 55.1634 55.1634 48 64 48C72.8366 48 80 55.1634 80 64ZM64 72C68.4183 72 72 68.4183 72 64C72 59.5817 68.4183 56 64 56C59.5817 56 56 59.5817 56 64C56 68.4183 59.5817 72 64 72Z" fill="white"/>
</g>
</g>
<defs>
<clipPath id="clip0">
<rect width="128" height="128" fill="white"/>
</clipPath>
</defs>
</svg>
