<svg width="128" height="128" viewBox="0 0 128 128" fill="none" xmlns="http://www.w3.org/2000/svg">
<g id="wat" clip-path="url(#clip0)">
<g id="_wedge270">
<path id="Ellipse" d="M0 0C0 70.6925 57.3075 128 128 128V0H0Z" fill="black" stroke="white" stroke-width="0.5"/>
</g>
<g id="_Torus">
<path id="Subtract" fill-rule="evenodd" clip-rule="evenodd" d="M80 64C80 72.8366 72.8366 80 64 80C55.1634 80 48 72.8366 48 64C48 55.1634 55.1634 48 64 48C72.8366 48 80 55.1634 80 64ZM64 72C68.4183 72 72 68.4183 72 64C72 59.5817 68.4183 56 64 56C59.5817 56 56 59.5817 56 64C56 68.4183 59.5817 72 64 72Z" fill="white"/>
</g>
</g>
<defs>
<clipPath id="clip0">
<rect width="128" height="128" fill="white"/>
</clipPath>
</defs>
</svg>
